inDegrees=yes
name=ik_S53_A13_T03
DataType=double
version=3
OpenSimVersion=4.3-2021-08-27-4bc7ad9
endheader
time	pelvis_tilt	pelvis_list	pelvis_rotation	pelvis_tx	pelvis_ty	pelvis_tz	hip_flexion_r	hip_adduction_r	hip_rotation_r	knee_angle_r	knee_angle_r_beta	ankle_angle_r	subtalar_angle_r	mtp_angle_r	hip_flexion_l	hip_adduction_l	hip_rotation_l	knee_angle_l	knee_angle_l_beta	ankle_angle_l	subtalar_angle_l	mtp_angle_l	lumbar_extension	lumbar_bending	lumbar_rotation	arm_flex_r	arm_add_r	arm_rot_r	elbow_flex_r	pro_sup_r	wrist_flex_r	wrist_dev_r	arm_flex_l	arm_add_l	arm_rot_l	elbow_flex_l	pro_sup_l	wrist_flex_l	wrist_dev_l
9.299999999999891	-0.09864816668354683	0.519085405692518	-4.983932203916472	0	0.9399999999999999	0	28.84213698472601	-9.232939068169363	-8.351719453166686	33.64615161561766	0.5872361263177378	0	0	0	28.84213698472601	-9.232939068169363	-8.351719453166686	33.64615161561766	0.5872361263177378	0	0	0	0.1052975329102603	-1.151183762581258	5.778795373523404	59.64030296418488	9.037697792404431	28.34001785637118	51.43025583409459	21.90096056268499	0	0	67.24136231018539	1.935930166260493	27.29425886033623	30.78245289156569	114.2446948170741	0	0
9.31999999999989	-0.117784904418255	0.5283431426852435	-5.170098956689847	0	0.9399999999999999	0	28.86003212295472	-9.235740505590901	-8.355601287392531	33.66318381520797	0.5875333942794455	0	0	0	28.86003212295472	-9.235740505590901	-8.355601287392531	33.66318381520797	0.5875333942794455	0	0	0	0.08460401337739679	-1.142774375706082	5.944754084666932	59.71635097120203	9.006848628829125	28.2842250364954	50.77526099449717	24.08776616496847	0	0	67.35097683367717	1.928234829637723	27.41005458580544	30.56844911022533	117.764966686437	0	0
9.33999999999989	-0.1219929561938912	0.5468972786882543	-5.385862274118513	0	0.9399999999999999	0	28.87665495698036	-9.238331970992331	-8.359199544808256	33.67902326177492	0.5878098447737324	0	0	0	28.87665495698036	-9.238331970992331	-8.359199544808256	33.67902326177492	0.5878098447737324	0	0	0	0.07745068462821761	-1.124939254636215	6.138974401153042	59.7580304279487	8.981041831997738	28.25291354773672	49.85195396870501	27.40870774362998	0	0	67.44443548400642	1.900515542698896	27.59948974962012	30.28708239442694	119.4472549270356	0	0
9.359999999999889	-0.148014171799678	0.5265605162422242	-5.379690108709458	0	0.9399999999999999	0	28.88203986511743	-9.239151167706153	-8.360346773518549	33.6842767275471	0.5879015350485979	0	0	0	28.88203986511743	-9.239151167706153	-8.360346773518549	33.6842767275471	0.5879015350485979	0	0	0	0.05402594093665505	-1.147284442169372	6.072018585133186	59.77751846702642	9.20799478120419	28.23914695666755	49.51732856093827	28.33124126629892	0	0	67.61560605799848	1.853236650333054	27.69227747570942	29.77655203006587	120.9310883774086	0	0
9.379999999999889	-0.1481466673254055	0.5328251995555133	-5.489746751046335	0	0.9399999999999999	0	28.88764489153182	-9.240003772921879	-8.361541018141281	33.68974120036874	0.5879969080912212	0	0	0	28.88764489153182	-9.240003772921879	-8.361541018141281	33.68974120036874	0.5879969080912212	0	0	0	0.05191455391157788	-1.141108492892524	6.170249510947457	59.76474858010682	9.312659827277418	28.29718534596195	48.99052381440653	29.34419133254396	0	0	67.67047715931137	2.040286824680034	27.67362568761241	29.4439358105046	121.6546367423855	0	0
9.399999999999888	-0.1627654627361789	0.4986264858134586	-5.420622928451015	0	0.9399999999999999	0	28.89273461363647	-9.240768115653079	-8.362616807239608	33.69475635575095	0.58808443906514	0	0	0	28.89273461363647	-9.240768115653079	-8.362616807239608	33.69475635575095	0.58808443906514	0	0	0	0.04094491322285371	-1.175924618256893	6.050032404127127	59.76273084367791	9.44214020634576	28.31787316278543	48.7412307392812	30.09383683460829	0	0	67.73057513320614	1.912888358188264	27.72413040564673	29.061483652272	122.9669940505636	0	0
9.419999999999888	-0.1635317733679184	0.4895309984456186	-5.570057734752544	0	0.9399999999999999	0	28.90131628093265	-9.242100519131421	-8.364469703246117	33.70296101223499	0.5882276373347815	0	0	0	28.90131628093265	-9.242100519131421	-8.364469703246117	33.70296101223499	0.5882276373347815	0	0	0	0.04260528075212087	-1.184534701667318	6.219203306349153	59.6136167736981	9.544283415396958	28.05771395117243	48.58765944249895	30.49914098185913	0	0	67.96537597715229	2.297654000182451	27.71026666078	28.30211374589922	125.4860102504026	0	0
9.439999999999888	-0.1629064306088422	0.4876656444137077	-5.496210496038433	0	0.9399999999999999	0	28.90613909720129	-9.242834419104691	-8.365498007919367	33.70765083365286	0.5883094901598539	0	0	0	28.90613909720129	-9.242834419104691	-8.365498007919367	33.70765083365286	0.5883094901598539	0	0	0	0.04428143993413175	-1.186205358687842	6.151683656378901	59.4122461478363	9.518206103052474	28.04304737424912	48.80914986473926	31.44118261314189	0	0	67.99273842706971	2.251290257797876	27.70635869460321	27.75357606355547	125.3673420149502	0	0
9.459999999999887	-0.1596736155114193	0.4537489142163636	-5.450682590493123	0	0.9399999999999999	0	28.91110904120277	-9.243586127202354	-8.366553656270703	33.71250841335113	0.5883942709192667	0	0	0	28.91110904120277	-9.243586127202354	-8.366553656270703	33.71250841335113	0.5883942709192667	0	0	0	0.0509665750992359	-1.219289351862479	6.141799261457679	59.16804465004299	9.484408796918011	27.94916441304841	49.32023132690556	31.59816767666553	0	0	68.24333185389922	2.408182936569025	27.67034357134189	27.00390186133643	125.4406007971292	0	0
9.479999999999887	-0.1865438382495215	0.4329367733510652	-5.543618687901969	0	0.9399999999999999	0	28.91930384497509	-9.244849424135884	-8.368315669587059	33.72037921351129	0.588531642296828	0	0	0	28.91930384497509	-9.244849424135884	-8.368315669587059	33.72037921351129	0.588531642296828	0	0	0	0.02631760110119587	-1.241341052726365	6.154291977988576	58.96327185673206	9.539132366281365	27.95533288158008	49.81986526801769	31.4046237713836	0	0	68.55764660163477	2.404577611263358	27.8835196534175	25.97990299032982	125.0394224844484	0	0
9.499999999999886	-0.1741824392193736	0.4547243498661332	-5.708068169920519	0	0.9399999999999999	0	28.9257049908896	-9.245845065462385	-8.369700192169955	33.72647090728489	0.5886379624102005	0	0	0	28.9257049908896	-9.245845065462385	-8.369700192169955	33.72647090728489	0.5886379624102005	0	0	0	0.03487820838172154	-1.218888638460846	6.173428265126129	58.79433614034826	9.836670758440802	27.83981512382035	49.75430560433456	31.73655007171052	0	0	68.69239466447829	2.356775314379727	28.4514657887562	25.33265083780859	123.473773435022	0	0
9.519999999999886	-0.1939428082869352	0.4890859277441412	-5.846908270666901	0	0.9399999999999999	0	28.93388686277201	-9.247120790109076	-8.37147282009235	33.73423578509114	0.5887734850939347	0	0	0	28.93388686277201	-9.247120790109076	-8.37147282009235	33.73423578509114	0.5887734850939347	0	0	0	0.01277517312730381	-1.1861245651954	6.201679157280805	58.82416030741561	9.891047906779102	27.95773931463911	49.73882937324629	31.74473683206192	0	0	68.90780051784654	1.999509000245998	29.93402103143593	24.45605227117003	121.2637832648276	0	0
9.539999999999885	-0.1860391050610803	0.5147279467599915	-5.788130415254167	0	0.9399999999999999	0	28.94470610512348	-9.24880673084408	-8.373816591196988	33.74449564534346	0.5889525534361321	0	0	0	28.94470610512348	-9.24880673084408	-8.373816591196988	33.74449564534346	0.5889525534361321	0	0	0	0.01960038929258521	-1.158485383688488	6.055930367799507	58.74867979797222	10.10720248558279	28.17275071057864	50.31220260833581	28.03133414201699	0	0	68.87175022162168	1.79683626761832	30.18137036817347	24.25801930836436	122.4447990870805	0	0
9.559999999999885	-0.1911432842602717	0.5323840475640229	-5.772726063274397	0	0.9399999999999999	0	28.95462413119618	-9.250348716183959	-8.375962552657327	33.75390893589862	0.5891168463497666	0	0	0	28.95462413119618	-9.250348716183959	-8.375962552657327	33.75390893589862	0.5891168463497666	0	0	0	0.01849437363465128	-1.137669921174393	6.009897422953399	58.77393543641198	10.23973277565823	28.24185633262768	50.9833001652213	23.94684449384984	0	0	68.64883701021152	1.843970036819576	30.52328912812186	23.8836542905702	123.8404769554173	0	0
9.579999999999885	-0.171190888781977	0.5457742883781027	-5.855173749801642	0	0.9399999999999999	0	28.96068317450291	-9.251288292493951	-8.377271617135598	33.75966817968386	0.5892173641162439	0	0	0	28.96068317450291	-9.251288292493951	-8.377271617135598	33.75966817968386	0.5892173641162439	0	0	0	0.03687768641897032	-1.121580087649039	6.033694065284873	58.79466329975257	10.37647929004461	28.18793356785137	51.13290125428373	22.84563784573066	0	0	68.26706027207912	1.908034952926441	30.98531853646235	23.65179635374709	122.8088587449677	0	0
9.599999999999884	-0.1504551084915434	0.5767305395760385	-5.94322015494112	0	0.9399999999999999	0	28.96676417963178	-9.252231419708773	-8.378585732773391	33.76544369920577	0.5893181659479145	0	0	0	28.96676417963178	-9.252231419708773	-8.378585732773391	33.76544369920577	0.5893181659479145	0	0	0	0.05275433736064784	-1.089420137003814	6.11039117844371	58.856155575654	10.39421152565215	27.99225848083511	51.15370858992457	22.49078396846403	0	0	67.75817073105813	1.934190379030315	31.67143923312309	23.66841084466085	121.2262767751893	0	0
9.619999999999884	-0.1624349232648563	0.6018168877374115	-6.176844751887878	0	0.9399999999999999	0	28.97589244271968	-9.253639483824287	-8.380551904805627	33.77414861814124	0.5894700954444577	0	0	0	28.97589244271968	-9.253639483824287	-8.380551904805627	33.77414861814124	0.5894700954444577	0	0	0	0.03599784378607289	-1.064386596881196	6.32416216197131	58.97382677265203	10.36192155798269	27.79871511430916	50.91216733435985	22.71119901082333	0	0	67.25168582364734	1.900047514819203	32.46706111790525	23.60894871709927	117.7633292039462	0	0
9.639999999999883	-0.1590310288892567	0.6128841669337414	-6.242353680365479	0	0.9399999999999999	0	28.98440959428304	-9.254949721732425	-8.382383560123149	33.78228464462837	0.5896120958946875	0	0	0	28.98440959428304	-9.254949721732425	-8.382383560123149	33.78228464462837	0.5896120958946875	0	0	0	0.03654703041924122	-1.0520847682472	6.423963058611428	58.94635537124432	10.2271580679841	27.77736973370373	50.68727710112368	22.70640006409234	0	0	67.17136109698842	2.04013113573976	32.52361037184377	23.43333290230554	115.6959747256393	0	0
9.659999999999883	-0.1508406154578133	0.6042767407569088	-6.178979740402355	0	0.9399999999999999	0	28.99288105869026	-9.256258530759302	-8.384210734478454	33.79033787018626	0.5897526511960784	0	0	0	28.99288105869026	-9.256258530759302	-8.384210734478454	33.79033787018626	0.5897526511960784	0	0	0	0.04513533720052595	-1.059310694034774	6.474703279875193	58.93258188841194	10.13207073147555	27.69777691604848	50.08239188025649	23.18142359177041	0	0	66.89214546234896	2.176556320098136	32.48577239815803	23.40255691410467	115.8919300599258	0	0
9.679999999999882	-0.1433093774149863	0.5735639542515	-6.09778536321372	0	0.9399999999999999	0	29.00294146819333	-9.257819861965894	-8.386387492725747	33.79984922486406	0.5899186556515311	0	0	0	29.00294146819333	-9.257819861965894	-8.386387492725747	33.79984922486406	0.5899186556515311	0	0	0	0.05648844964712556	-1.088224697597886	6.481201154964671	58.78417341026418	9.638006885412898	28.35230079772446	49.55785100549131	24.38093997419327	0	0	66.89731320271473	2.395736574307566	31.52758510598442	23.14070170485974	116.3720356330992	0	0
